<svg xmlns="http://www.w3.org/2000/svg" viewBox="0 0 512 512"><rect width="512" height="512" fill="#fff" rx="96" ry="96"/><path fill="#f69" d="M114.881 267.214c0-38.017 14.977-80.64 34.945-112.897l52.608 20.736c-21.888 34.944-34.176 65.28-34.176 103.297 0 33.792 11.136 55.68 31.104 55.68 18.816 0 31.104-13.056 31.104-43.392 0-19.584-1.92-32.64-4.992-57.217h59.52c-3.071 24.577-4.607 37.633-4.607 57.217 0 32.64 11.136 43.392 29.184 43.392 18.048 0 30.72-21.888 30.72-64.512 0-37.248-7.68-61.057-29.184-95.617l51.456-19.584c20.353 32.256 34.177 65.664 34.177 111.745 0 73.344-28.8 114.048-79.105 114.048-25.344 0-49.92-11.136-61.824-40.32h-1.537c-11.135 29.184-32.64 40.32-57.984 40.32-48.768 0-81.409-39.168-81.409-112.896Z"/></svg>